<?xml version="1.0" encoding="UTF-8" standalone="no"?>
<!-- Created with Inkscape (http://www.inkscape.org/) -->

<svg
   version="1.1"
   id="svg2"
   width="2829.3333"
   height="2829.3333"
   viewBox="0 0 2829.3333 2829.3333"
   sodipodi:docname="2890_R0lVIE5JQyA2NzQtMzM.eps"
   xmlns:inkscape="http://www.inkscape.org/namespaces/inkscape"
   xmlns:sodipodi="http://sodipodi.sourceforge.net/DTD/sodipodi-0.dtd"
   xmlns="http://www.w3.org/2000/svg"
   xmlns:svg="http://www.w3.org/2000/svg">
  <defs
     id="defs6" />
  <sodipodi:namedview
     id="namedview4"
     pagecolor="#ffffff"
     bordercolor="#000000"
     borderopacity="0.25"
     inkscape:showpageshadow="2"
     inkscape:pageopacity="0.0"
     inkscape:pagecheckerboard="0"
     inkscape:deskcolor="#d1d1d1" />
  <g
     id="g8"
     inkscape:groupmode="layer"
     inkscape:label="ink_ext_XXXXXX"
     transform="matrix(1.3333333,0,0,-1.3333333,0,2829.3333)">
    <g
       id="g10"
       transform="scale(0.1)">
      <path
         d="m 7073.84,14975.1 c 0.12,195.3 78.45,369.9 206.31,498.2 128.26,127.8 302.75,206.1 498.02,206.2 195.25,-0.1 369.78,-78.4 498.03,-206.3 127.84,-128.2 206.18,-302.8 206.31,-498.1 -0.13,-195.2 -78.44,-369.7 -206.31,-497.9 -128.23,-127.9 -302.75,-206.2 -498.03,-206.3 -195.27,0.1 -369.79,78.4 -498.05,206.3 -127.83,128.2 -206.16,302.7 -206.28,497.9 z m 1555.12,-850.7 c 217.38,216.9 352.58,519.3 352.46,850.7 0.12,331.5 -135.08,633.9 -352.44,850.9 -216.95,217.3 -519.33,352.6 -850.81,352.4 -331.47,0.2 -633.85,-135 -850.81,-352.4 -217.34,-217 -352.55,-519.4 -352.42,-850.9 -0.13,-331.4 135.08,-633.8 352.42,-850.7 216.98,-217.4 519.34,-352.6 850.81,-352.5 331.46,-0.1 633.84,135.1 850.79,352.5"
         style="fill:#29282e;fill-opacity:1;fill-rule:nonzero;stroke:none"
         id="path12" />
      <path
         d="m 12730.7,14975.1 c 0.1,195.3 78.5,369.9 206.3,498.2 128.2,127.8 302.8,206.1 498,206.2 195.3,-0.1 369.8,-78.4 498.1,-206.3 127.8,-128.2 206.1,-302.8 206.2,-498.1 -0.1,-195.2 -78.4,-369.7 -206.2,-497.9 -128.3,-127.9 -302.8,-206.2 -498.1,-206.3 -195.2,0.1 -369.8,78.4 -498,206.3 -127.8,128.2 -206.2,302.7 -206.3,497.9 z m 1555.1,-850.7 c 217.4,216.9 352.6,519.3 352.5,850.7 0.1,331.5 -135.1,633.9 -352.5,850.9 -216.9,217.3 -519.3,352.6 -850.8,352.4 -331.4,0.2 -633.8,-135 -850.8,-352.4 -217.3,-217 -352.5,-519.4 -352.4,-850.9 -0.1,-331.4 135.1,-633.8 352.4,-850.7 217,-217.4 519.4,-352.6 850.8,-352.5 331.5,-0.1 633.9,135.1 850.8,352.5"
         style="fill:#29282e;fill-opacity:1;fill-rule:nonzero;stroke:none"
         id="path14" />
      <path
         d="m 3927.6,14216.4 c 0.12,283 114.04,537 299.39,722.8 185.78,185.3 439.73,299.2 722.74,299.3 283.01,-0.1 536.99,-114 722.77,-299.4 185.35,-185.7 299.27,-439.7 299.39,-722.7 -0.12,-283 -114.04,-537 -299.39,-722.7 -185.78,-185.4 -439.76,-299.2 -722.77,-299.4 -283.01,0.2 -536.96,114 -722.74,299.4 -185.35,185.7 -299.27,439.7 -299.39,722.7 z m 2097.66,-1075.5 c 274.86,274.5 445.66,656.3 445.54,1075.5 0.12,419.2 -170.68,801.1 -445.54,1075.5 -274.49,274.9 -656.31,445.7 -1075.53,445.5 -419.2,0.2 -801.04,-170.6 -1075.5,-445.5 -274.85,-274.4 -445.66,-656.3 -445.54,-1075.5 -0.12,-419.2 170.69,-801 445.54,-1075.5 274.46,-274.8 656.3,-445.6 1075.5,-445.5 419.22,-0.1 801.04,170.7 1075.53,445.5"
         style="fill:#29282e;fill-opacity:1;fill-rule:nonzero;stroke:none"
         id="path16" />
      <path
         d="m 12283.8,8543.7 c 333.8,211.2 728.1,333.3 1153.1,333.4 425,-0.1 819.4,-122.2 1153.3,-333.4 279.7,-177.1 515.2,-417.6 688.2,-700.1 -536.5,-431.7 -1188,-647.6 -1841.5,-647.8 -653.4,0.1 -1304.9,216.5 -1841.4,648.2 173.1,282.3 408.6,522.7 688.3,699.7 z M 16799,7138.4 c 50.2,0 100.4,-9.6 147.3,-28.6 46.9,-19.1 90.5,-47.3 129.2,-86 l 809.2,-809.1 c 38.7,-38.7 66.9,-82.3 85.9,-129.2 19,-46.8 28.6,-97 28.6,-147.3 0,-50.1 -9.6,-100.3 -28.6,-147.1 -19.1,-47 -47.3,-90.6 -86,-129.3 -38.6,-38.6 -82.2,-66.8 -129.1,-85.9 -46.8,-19 -97,-28.6 -147.3,-28.6 -50.2,0 -100.4,9.6 -147.2,28.6 -46.9,19.1 -90.5,47.3 -129.2,85.9 l -809.3,809.1 c -38.6,38.7 -66.9,82.3 -85.9,129.3 -19.1,46.8 -28.6,97 -28.6,147.2 0,50.3 9.6,100.5 28.6,147.3 19,46.9 47.2,90.4 85.8,129.1 0.1,0 0.1,0 0.1,0.1 38.7,38.6 82.3,66.8 129.2,85.9 46.9,19 97,28.6 147.3,28.6 z m -8368.79,4236.7 c -74.59,-74.5 -145.07,-153.2 -211.74,-235.1 -178.29,-219.2 -327.09,-463.4 -440.3,-726.7 -113.2,263.3 -262,507.5 -440.29,726.7 -66.67,81.9 -137.15,160.6 -211.74,235.1 -288.72,288.9 -635.66,520.2 -1021.02,676.4 90.35,179.4 208.33,342.6 349.24,483.7 339.58,339.1 806.03,548.2 1323.81,548.3 517.79,-0.1 984.24,-209.2 1323.83,-548.3 140.9,-141.1 258.88,-304.3 349.21,-483.7 -385.33,-156.2 -732.3,-387.5 -1021,-676.4 z m 2899.19,2118.6 c -185.8,-185.4 -439.8,-299.2 -722.8,-299.4 -283,0.2 -537,114 -722.75,299.4 -185.35,185.7 -299.27,439.7 -299.4,722.7 0.13,283 114.05,537 299.4,722.8 185.75,185.3 439.75,299.2 722.75,299.3 283,-0.1 537,-114 722.8,-299.3 185.3,-185.8 299.3,-439.8 299.4,-722.8 -0.1,-283 -114.1,-537 -299.4,-722.7 z m 3911.9,722.7 c 0.2,283 114.1,537 299.5,722.8 185.7,185.3 439.7,299.2 722.7,299.3 283,-0.1 536.9,-114 722.7,-299.3 185.4,-185.8 299.3,-439.8 299.4,-722.8 -0.1,-283 -114,-537 -299.4,-722.7 -185.8,-185.4 -439.7,-299.2 -722.7,-299.4 -283,0.2 -537,114 -722.7,299.4 -185.4,185.7 -299.3,439.7 -299.5,722.7 z m 1022.2,-1939.8 c -42,0 -83.6,-1.5 -125.1,-3.2 -82.3,104 -170.8,204.7 -266.8,300.6 -127.9,127.9 -263.5,243.4 -405.1,347 231.9,-142.9 505.3,-225.7 797,-225.6 419.2,-0.1 801,170.7 1075.5,445.5 274.8,274.5 445.6,656.3 445.5,1075.5 0.1,419.2 -170.7,801.1 -445.5,1075.5 -274.5,274.9 -656.3,445.7 -1075.5,445.5 -419.3,0.2 -801.1,-170.6 -1075.5,-445.5 -274.9,-274.4 -445.7,-656.3 -445.6,-1075.5 -0.1,-419.2 170.7,-801 445.6,-1075.5 44.5,-44.6 92.2,-86.2 142.1,-125 -572.6,377.5 -1233.5,566.7 -1893.2,566.5 -0.3,0 -0.6,0 -0.9,0 -0.4,0 -0.6,0 -1,0 -11.5,0 -22.8,-0.7 -34.3,-0.9 -428.2,-4.5 -855.8,-87.7 -1259.1,-251.2 -233.3,-94.6 -457.9,-216.9 -670,-364.7 75.4,52.2 146,110.8 210.5,175.3 274.9,274.5 445.7,656.3 445.6,1075.5 0.1,419.2 -170.7,801.1 -445.6,1075.5 -274.4,274.9 -656.3,445.7 -1075.5,445.5 -419.2,0.2 -801.04,-170.6 -1075.52,-445.5 -274.85,-274.4 -445.65,-656.3 -445.52,-1075.5 -0.13,-419.2 170.67,-801 445.52,-1075.5 274.48,-274.8 656.32,-445.6 1075.52,-445.5 312.9,-0.1 604.9,95.1 847.1,257.7 -158.3,-111.9 -309.6,-237.6 -451,-379 -96,-96 -184.3,-196.7 -266.7,-300.7 -42.9,1.7 -86,3.2 -129.4,3.2 -231.6,0.1 -457,-26.4 -674.25,-75 -118.25,256.9 -280.42,489.3 -477.58,686.3 -428.29,428.7 -1022.61,694.6 -1676.6,694.5 -653.95,0.1 -1248.31,-265.8 -1676.59,-694.5 -197.2,-197 -359.36,-429.4 -477.61,-686.3 -217.19,48.6 -442.65,75.1 -674.24,75 -849.14,0.2 -1620.2,-344.9 -2176.38,-901.5 -556.59,-556.2 -901.61,-1327.2 -901.48,-2176.3 0.02,-39.2 1.6,-73.5 2.48,-102.9 4.24,-137.7 119.29,-245.9 257,-241.7 135.08,4.1 241.13,115.1 241.13,249.3 0,2.6 0.61,5 0.53,7.7 -1.08,33.9 -2.27,62.9 -2.24,87.6 0.12,712.9 288.25,1356.1 755.34,1823.6 467.5,467 1110.65,755.2 1823.62,755.3 712.95,-0.1 1356.15,-288.3 1823.62,-755.3 467.09,-467.5 755.25,-1110.7 755.37,-1823.6 0.03,-24.7 -1.16,-53.7 -2.26,-87.5 -0.07,-2.6 0.53,-5.1 0.53,-7.8 0.02,-122.7 88.92,-224.9 207.53,-244.9 3.72,-0.6 7.53,-1 11.33,-1.5 7.4,-0.9 14.49,-2.7 22.07,-2.9 3.51,-0.1 6.77,0.7 10.25,0.7 3.47,0 6.73,-0.8 10.24,-0.7 7.57,0.2 14.66,2 22.07,2.9 3.8,0.6 7.63,0.8 11.36,1.5 118.6,20 207.5,122.2 207.52,244.9 0,2.7 0.6,5.2 0.53,7.8 -1.1,33.8 -2.29,62.8 -2.26,87.5 0.12,712.9 288.25,1356.1 755.34,1823.6 422.75,422.3 989.41,697.6 1621.13,746.6 -58.6,-109.1 -111.6,-220.5 -157.6,-334 -168.2,-414.7 -252.14,-855.1 -252.14,-1295.4 0,-349.8 53.84,-699.3 159.84,-1036.1 27.5,-87.3 57.6,-174 92.3,-259.3 168,-414.6 420.5,-803.4 756.1,-1139 34.5,-34.5 69.9,-68.3 106.1,-101.1 0.2,-0.2 0.3,-0.4 0.5,-0.5 l 1.3,-1.3 c -0.2,0.2 -0.4,0.5 -0.6,0.6 656.8,-603.5 1492.7,-906.2 2327,-906.1 795.7,-0.2 1592.9,275.5 2235,825 l 347,-347.1 c -16.6,-30.2 -31.9,-60.9 -44.6,-92.5 -43.6,-107.4 -65.2,-221.1 -65.2,-334.8 0,-113.6 21.6,-227.4 65.2,-334.8 43.4,-107.2 109,-208.1 195.4,-294.5 l 809.3,-809 c 86.3,-86.5 187.1,-152 294.4,-195.6 107.4,-43.5 221.2,-65.2 334.8,-65.2 113.7,0 227.5,21.7 334.8,65.2 107.3,43.6 208.2,109.1 294.5,195.6 86.4,86.3 152,187.1 195.4,294.4 43.5,107.4 65.2,221.1 65.2,334.7 0,113.7 -21.6,227.4 -65.2,334.8 -43.4,107.2 -109,208.1 -195.4,294.5 l -176.4,-176.4 176.4,176.4 -809.2,809.2 c -86.4,86.4 -187.3,151.9 -294.6,195.4 -107.3,43.5 -221.1,65.2 -334.7,65.2 -113.7,0 -227.4,-21.7 -334.7,-65.2 -31.6,-12.8 -62.3,-28.1 -92.6,-44.6 l -344.2,344.2 c 322.6,367.7 553.8,788.7 693.2,1231.8 8.3,26.3 16.5,52.6 24.1,79 38.2,132.4 -38.1,270.6 -170.5,308.8 -3.4,1 -6.8,1 -10.3,1.9 -129.2,31.4 -261.3,-43.5 -298.6,-172.4 -117.2,-406.3 -323.1,-791.5 -618.8,-1126.6 -206.5,308.8 -475.3,572 -789.5,771 -410.6,260.1 -898.9,410.9 -1420.2,410.8 -521.3,0.1 -1009.5,-150.7 -1420,-410.8 -314,-198.8 -582.7,-461.7 -789.4,-770.1 -224.2,254.3 -397.3,537.2 -518.7,836.5 -143.6,354.2 -215.5,731.1 -215.5,1108 0,376.9 71.9,753.7 215.5,1107.9 143.7,354.2 358.8,685.8 646.7,973.8 287.9,287.9 619.5,503 973.6,646.6 354.2,143.7 730.9,215.6 1107.8,215.6 754.2,-0.3 1506.2,-286.9 2081.9,-862.3 493.9,-494.1 774.7,-1117.6 844.9,-1761.7 14.5,-133.4 131.8,-229.9 264.4,-221.1 3.6,0.2 6.9,-0.4 10.5,0 137,14.9 235.9,138 221.1,274.9 -47,433.9 -177.3,860.9 -389.3,1255.4 630,-50 1194.9,-325 1616.7,-746.3 467.1,-467.5 755.2,-1110.7 755.3,-1823.6 0,-24.7 -1.1,-53.7 -2.2,-87.6 -0.1,-2.7 0.5,-5.1 0.5,-7.7 0,-134.2 106,-245.2 241.2,-249.3 137.6,-4.3 252.7,103.9 257,241.7 0.8,29.4 2.4,63.7 2.4,102.9 0.2,849.1 -344.9,1620.1 -901.4,2176.3 -556.2,556.6 -1327.3,901.7 -2176.4,901.5"
         style="fill:#29282e;fill-opacity:1;fill-rule:nonzero;stroke:none"
         id="path18" />
      <path
         d="m 16639.7,10087.3 c -3.5,0.4 -7,-0.2 -10.5,-0.1 -132.7,6.9 -248.6,-91.3 -261.2,-224.9 v 0 c -12.5,-133.6 83,-251.6 214.7,-269.6 3.5,-0.5 6.7,-1.7 10.3,-2.1 137.2,-12.9 258.8,87.9 271.7,225 12.9,137.2 -87.8,258.8 -225,271.7"
         style="fill:#29282e;fill-opacity:1;fill-rule:nonzero;stroke:none"
         id="path20" />
      <path
         d="m 14270.2,10990.5 c -0.2,-230.8 -92.9,-437.5 -244.1,-589.1 -151.6,-151.2 -358.3,-244 -589.2,-244.1 -230.9,0.1 -437.6,92.9 -589.2,244.1 -151.1,151.6 -243.9,358.3 -244,589.1 0.1,231 92.9,437.7 244,589.4 151.6,151.1 358.3,243.9 589.2,244 230.9,-0.1 437.6,-92.9 589.2,-244 151.2,-151.7 243.9,-358.4 244.1,-589.4 z m -1775.3,942.1 c -240.7,-240.3 -390.2,-575 -390.1,-942.1 -0.1,-367 149.5,-701.6 390.1,-941.9 240.3,-240.6 574.9,-390.3 942,-390.2 367.1,-0.1 701.7,149.6 942,390.2 240.6,240.3 390.3,574.9 390.2,941.9 0.1,367.1 -149.5,701.8 -390.2,942.1 -240.3,240.7 -574.9,390.3 -942,390.2 -367.1,0.1 -701.6,-149.5 -942,-390.2"
         style="fill:#29282e;fill-opacity:1;fill-rule:nonzero;stroke:none"
         id="path22" />
    </g>
  </g>
</svg>
